# ProBuilder 4.5.0
# https://unity3d.com/unity/features/worldbuilding/probuilder
# 6/30/2021 4:09:04 PM

mtllib ./Cube_2.mtl
o Cube_2

g Cube (1)
v -0.500006 -0.5000002 0.5
v -0.500006 -0.5000002 -0.5
v -0.500006 0.4999998 0.5
v -0.500006 0.4999998 -0.5
v 0.4999941 -0.5000002 -0.5
v 0.4999941 -0.5000002 0.5
v 0.4999941 0.4999998 -0.5
v 0.4999941 0.4999998 0.5
v -5.960464E-08 -5.960464E-08 0.5
v 2.912728E-08 -2.975037E-08 -0.5

vt 0.5 -0.5000002
vt -0.5 -0.5000002
vt 0.5 0.4999998
vt -0.5 0.4999998
vt 0.4999941 -0.5
vt 0.4999941 0.5
vt -0.500006 0.5
vt 0.4999941 0.4999998
vt -5.960464E-08 -5.960464E-08
vt -0.4999941 -0.5000002
vt -0.4999941 0.4999998
vt 0.5000079 0.5
vt 5.960441E-08 0.5
vt -0.4999921 0.5
vt -2.912739E-08 -0.5

vn -1 0 0
vn 1 0 0
vn 0 -1 0
vn 0 0 1
vn 0 0 -1
vn 0.7071025 0.707111 0
vn 0.2356981 0.7071083 7.195627E-09
vn -0.7071109 0.7071027 0
vn -0.2357064 0.7071055 7.195627E-09

usemtl Base
f 9/9/4 6/5/4 8/8/4
f 6/5/4 9/9/4 1/2/4
f 9/9/4 3/4/4 1/2/4
f 10/9/5 2/1/5 4/3/5
f 2/1/5 10/9/5 5/10/5
f 10/9/5 7/11/5 5/10/5
f 8/14/8 7/10/8 10/15/9
f 9/13/7 4/1/6 3/12/6
f 9/13/7 10/15/9 4/1/6
f 8/14/8 10/15/9 9/13/7
f 4/4/1 2/2/1 1/1/1
f 1/1/1 3/3/1 4/4/1
f 8/4/2 6/2/2 5/1/2
f 5/1/2 7/3/2 8/4/2
f 1/7/3 2/2/3 5/5/3
f 5/5/3 6/6/3 1/7/3

